<svg width="56" height="56" viewBox="0 0 56 56" fill="none" xmlns="http://www.w3.org/2000/svg">
<rect width="56" height="56" rx="8" fill="#AEB6DF"/>
<path d="M29.0333 44H28.0024C27.7392 43.9427 27.4852 43.8641 27.2496 43.7277C26.1551 43.0935 25.0589 42.4623 23.9632 41.8299C21.3121 40.2997 18.6615 38.7694 16.011 37.238C15.7747 37.1015 15.5253 36.984 15.3109 36.8132C14.7989 36.4049 14.4887 35.8683 14.3311 35.2382C14.3127 35.1654 14.3007 35.0908 14.2858 35.0169C14.2858 30.351 14.2858 25.6846 14.2858 21.0187C14.2904 21.001 14.2967 20.9838 14.2995 20.966C14.3471 20.6426 14.4595 20.341 14.6183 20.0572C14.8442 19.653 15.1343 19.3073 15.5414 19.0722C17.1599 18.1377 18.779 17.2026 20.3976 16.268C22.5849 15.0055 24.7716 13.743 26.9589 12.4805C27.2112 12.3349 27.4583 12.1801 27.7444 12.1021C28.0488 12.019 28.3584 11.988 28.6721 12.0041C29.0614 12.0242 29.434 12.1102 29.7757 12.3074C31.6695 13.4013 33.5632 14.4947 35.4576 15.588C37.4012 16.7101 39.3431 17.835 41.2902 18.9507C41.6886 19.1789 42.0338 19.4547 42.2855 19.8417C42.5653 20.2705 42.7533 20.7286 42.7533 21.2509C42.7533 25.7631 42.7533 30.2753 42.7533 34.7875C42.7533 34.85 42.7574 34.9137 42.7482 34.975C42.6152 35.8494 42.2087 36.5529 41.4312 37.0024C37.6907 39.1667 33.9468 41.3248 30.2046 43.4863C29.8325 43.7013 29.4684 43.9306 29.0333 44ZM19.0348 28.0192C19.0325 28.4057 19.0571 28.7904 19.1053 29.1728C19.2715 30.5007 19.693 31.7414 20.3873 32.8881C21.1389 34.1282 22.117 35.1516 23.3297 35.9468C24.6363 36.804 26.0691 37.3057 27.6257 37.4542C28.3412 37.5224 29.0556 37.5103 29.7671 37.4146C30.8766 37.2649 31.9286 36.9313 32.9194 36.4084C34.4972 35.5747 35.7471 34.3931 36.6679 32.8634C36.7258 32.7671 36.7252 32.7665 36.6289 32.7109C35.3223 31.9547 34.015 31.199 32.709 30.441C32.6511 30.4072 32.6241 30.4107 32.5874 30.4703C31.5909 32.1009 29.7734 32.9855 27.886 32.7224C26.3391 32.5068 25.1666 31.7012 24.3858 30.3476C23.8829 29.4761 23.6897 28.5301 23.7975 27.5285C23.9328 26.2751 24.4804 25.2294 25.4373 24.4141C26.4601 23.542 27.655 23.1567 28.9937 23.3012C30.5434 23.4686 31.7337 24.2358 32.5725 25.5487C32.6316 25.6416 32.6298 25.6427 32.7262 25.5871C34.0288 24.8338 35.3309 24.0804 36.6335 23.3264C36.7269 23.2725 36.7281 23.2697 36.6736 23.1785C36.2178 22.4165 35.6686 21.7303 35.0201 21.1219C34.2908 20.4374 33.4761 19.8795 32.5714 19.4535C31.06 18.7414 29.4719 18.4439 27.8052 18.566C27.0799 18.6193 26.3701 18.7523 25.6781 18.9731C23.8136 19.5676 22.2696 20.6329 21.0621 22.1706C19.7159 23.8849 19.0525 25.8434 19.0348 28.0215V28.0192Z" fill="#293693"/>
</svg>
