<svg xmlns="http://www.w3.org/2000/svg" width="56" height="56" fill="none" xmlns:v="https://vecta.io/nano"><rect width="56" height="56" rx="8" fill="#a4d0ff"/><path d="M29.033 44h-1.031c-.263-.057-.517-.136-.753-.272l-3.286-1.898-7.952-4.592c-.236-.136-.486-.254-.7-.425-.512-.408-.822-.945-.98-1.575l-.045-.221V21.019l.014-.053a2.64 2.64 0 0 1 .319-.909c.226-.404.516-.75.923-.985l4.856-2.804 6.561-3.788c.252-.146.499-.3.785-.378a2.93 2.93 0 0 1 .928-.098c.389.02.762.106 1.104.303l5.682 3.281 5.833 3.363c.398.228.744.504.995.891.28.429.468.887.468 1.409v13.537c0 .063.004.126-.005.188-.133.874-.539 1.578-1.317 2.027l-11.227 6.484c-.372.215-.737.444-1.172.514h.001zm-9.998-15.981a8.8 8.8 0 0 0 .07 1.154c.166 1.328.588 2.569 1.282 3.715a9.49 9.49 0 0 0 2.942 3.059c1.307.857 2.739 1.359 4.296 1.507.716.068 1.43.056 2.141-.04a9.39 9.39 0 0 0 3.152-1.006 9.45 9.45 0 0 0 3.749-3.545c.058-.096.057-.097-.039-.152l-3.92-2.27c-.058-.034-.085-.03-.122.029-.997 1.631-2.814 2.515-4.701 2.252a4.6 4.6 0 0 1-3.5-2.375c-.503-.872-.696-1.817-.588-2.819.135-1.253.683-2.299 1.64-3.114 1.023-.872 2.218-1.257 3.556-1.113 1.55.167 2.74.935 3.579 2.247.059.093.057.094.154.038l3.907-2.261c.093-.054.095-.057.04-.148-.456-.762-1.005-1.448-1.654-2.057-.729-.684-1.544-1.242-2.449-1.668a9.39 9.39 0 0 0-4.766-.887c-.725.053-1.435.186-2.127.407-1.864.595-3.408 1.66-4.616 3.198-1.346 1.714-2.01 3.673-2.027 5.851v-.002zm21.866 1.048v-.414c0-.116.003-.119.117-.119h.828c.095 0 .104-.009.104-.103v-.828c0-.093-.008-.101-.104-.102-.279-.001-.557 0-.836-.001-.104 0-.109-.006-.109-.112l.001-.851c.001-.07-.022-.097-.095-.096l-.843.001c-.096 0-.102.006-.103.102v.836c0 .113-.007.12-.119.12h-.836c-.096 0-.104.008-.104.102v.828c0 .095.007.102.103.103h.843c.104 0 .112.009.112.111v.851c-.001.071.024.096.096.096h.859c.065 0 .088-.024.087-.088l-.001-.437h.001zm-4.993-.004l-.001.429a.08.08 0 0 0 .1.1l.828-.001c.098 0 .105-.008.106-.108v-.796c0-.102.05-.152.149-.152h.804c.095 0 .103-.009.103-.103v-.828c0-.094-.008-.101-.104-.101-.274-.001-.546 0-.82 0-.129 0-.132-.003-.132-.13v-.82c0-.1-.008-.108-.105-.108h-.82c-.1 0-.106.006-.107.106v.835c0 .108-.008.116-.115.116h-.835c-.101 0-.107.006-.108.106v.812c0 .109.005.114.115.115h.843c.073 0 .103.025.102.1l-.001.43-.001-.001z" fill="#004482" fill-opacity=".8"/></svg>