<svg xmlns="http://www.w3.org/2000/svg" width="56" height="56" fill="none" xmlns:v="https://vecta.io/nano"><rect width="56" height="56" rx="8" fill="#ffce8b"/><path d="M26.576 44c-.608-.101-1.225-.061-1.838-.111-1.177-.098-2.348-.213-3.493-.514-.256-.068-.514-.14-.719-.339l1.917.212c1.485.16 2.976.188 4.469.194 3.182.011 6.337-.227 9.443-.957.956-.224 1.901-.495 2.759-.996.214-.124.409-.283.669-.466a1.34 1.34 0 0 1-.337.74c-.416.481-.971.754-1.543.985-1.191.48-2.442.709-3.706.882-1.334.183-2.673.304-4.021.324-.091 0-.183.03-.275.047h-3.323-.001zm1.384-14.569a23.09 23.09 0 0 1-2.475-2.389c-.578-.65-1.099-1.339-1.446-2.146-.462-1.072-.364-2.067.341-3.011.78-1.043 1.791-1.835 2.799-2.631 1.016-.803 2.045-1.59 2.88-2.594 1.063-1.278 1.505-2.723 1.159-4.377-.019-.088-.048-.182-.006-.282.144.004.177.133.234.22.675 1.033.758 2.149.424 3.306-.346 1.204-1.067 2.185-1.897 3.099s-1.831 1.647-2.748 2.468a6.57 6.57 0 0 0-1.274 1.538c-.698 1.173-.617 2.345.003 3.519.484.918 1.155 1.715 1.693 2.598.129.213.258.425.314.68l-.001.001zm-6.728 9.784c-.81.07-1.528.232-2.214.524a2.77 2.77 0 0 0-.579.308c-.296.217-.286.426.046.584.503.241 1.045.364 1.59.462 1.265.227 2.543.333 3.828.404l4.793.035c2.556-.084 5.111-.23 7.618-.803.389-.089.769-.202 1.123-.389.483-.255.561-.445.423-.957.586.194.69.625.242 1.037-.434.4-.982.59-1.525.776-1.42.485-2.892.732-4.374.931-2.492.335-4.998.369-7.503.304a47.87 47.87 0 0 1-7.282-.743c-.299-.054-.591-.136-.86-.281-.483-.261-.531-.651-.113-1.026.394-.354.866-.584 1.355-.772.922-.354 1.861-.629 2.865-.578.176.008.354.005.571.184h-.003zm7.964-8.724l.29-.362c.705-.895.718-1.89.019-2.785-.476-.61-.951-1.214-1.232-1.951-.499-1.314-.228-2.479.642-3.539.787-.957 1.814-1.596 2.901-2.143a17.2 17.2 0 0 1 3.002-1.168l.272-.069c-.059.149-.174.181-.264.235-1.182.709-2.355 1.434-3.41 2.33-.423.36-.814.748-1.128 1.21-.51.751-.517 1.521-.087 2.305.252.459.564.878.864 1.305.845 1.2.82 2.128-.098 3.276-.474.593-1.076 1.034-1.77 1.357h-.001zm-5.498 6.238c-.344.444-.299.607.18.761.451.145.924.167 1.388.218a18.13 18.13 0 0 0 5.601-.279c.27-.055.502-.044.741.111.36.235.759.391 1.152.564.073.032.188.039.194.134.006.105-.112.105-.184.134a13.55 13.55 0 0 1-3.79.921c-1.64.159-3.273.12-4.88-.3-.487-.127-.957-.302-1.387-.567-.665-.412-.648-.962.037-1.337a3.21 3.21 0 0 1 .947-.362l.001.003zm.549-7.121l-1.91.574a5.61 5.61 0 0 0-1.023.469c-.116.069-.241.152-.23.31.011.165.158.213.282.259.567.201 1.163.239 1.755.288 1.534.125 3.068.059 4.601-.01a55.51 55.51 0 0 0 6.625-.705c.091-.015.181-.055.351.029-.582.234-1.026.628-1.59.773-1.307.337-2.641.505-3.984.63a42.26 42.26 0 0 1-5.191.166c-1.261-.036-2.522-.119-3.765-.364a4.85 4.85 0 0 1-.99-.293c-.191-.083-.408-.165-.433-.408-.026-.249.18-.365.357-.47.487-.292 1.018-.484 1.547-.675 1.108-.4 2.257-.602 3.431-.658.05-.003.104-.012.167.086zm-1.377 3.634c0 .136-.091.187-.141.261-.225.348-.16.572.224.74.353.153.733.163 1.104.203 2.444.258 4.877.18 7.289-.288.577-.112 1.09-.162 1.554.293.163.16.411.234.624.349-.054.148-.191.124-.29.152-1.535.419-3.095.689-4.682.791-1.817.118-3.627.126-5.419-.261-.521-.113-1.037-.252-1.488-.554-.501-.336-.505-.74-.015-1.101.371-.274.785-.454 1.238-.585h.004zm12.527-3.395c.348-.411.749-.495 1.149-.557.867-.136 1.684-.017 2.401.541.808.629 1.07 1.68.649 2.615-.3.667-.784 1.177-1.372 1.596-1.001.712-2.124 1.149-3.298 1.474-.037.01-.079 0-.142 0 .04-.199.205-.235.331-.304.882-.485 1.72-1.032 2.412-1.773.463-.497.838-1.052.888-1.755.083-1.157-.926-2.121-2.081-1.998-.286.03-.568.095-.935.159v.003z" fill-opacity=".8" fill="#933c23"/></svg>