<svg width="56" height="56" viewBox="0 0 56 56" fill="none" xmlns="http://www.w3.org/2000/svg">
<rect width="56" height="56.0002" rx="8" fill="#FFE379"/>
<path d="M29.2686 12C29.8848 12.0802 30.503 12.1372 31.1149 12.2448C32.3936 12.4748 33.6196 12.8525 34.6197 13.7366C35.3287 14.3633 35.7423 15.1461 35.7465 16.1083C35.7529 18.423 35.7507 20.7356 35.7423 23.0504C35.7402 23.6623 35.6895 24.2742 35.4743 24.8566C34.9531 26.2682 33.8643 26.9941 32.4548 27.3148C32.0307 27.4119 31.596 27.4519 31.1593 27.4519C28.5955 27.4477 26.0339 27.4435 23.4702 27.4562C22.5924 27.4604 21.7632 27.6777 21.0352 28.1926C20.0688 28.8762 19.6025 29.8595 19.3809 30.9842C19.3155 31.3112 19.3028 31.6425 19.305 31.9759C19.305 33.1174 19.305 34.259 19.305 35.4005C19.305 35.5989 19.3007 35.7846 19.0264 35.7824C18.1761 35.7782 17.3215 35.8183 16.4754 35.7656C14.9751 35.6706 13.9433 34.8245 13.2111 33.5711C12.5971 32.5224 12.3038 31.3661 12.154 30.176C11.9261 28.3635 11.9261 26.5531 12.3249 24.7616C12.6076 23.485 13.1056 22.3118 14.091 21.3982C14.9203 20.6301 15.9014 20.225 17.024 20.2229C20.5204 20.2102 24.0188 20.2208 27.5152 20.2229C27.8472 20.2229 28.0132 20.059 28.0132 19.7312C28.0132 19.3641 27.8275 19.1805 27.4561 19.1805C25.2152 19.1805 22.9722 19.1805 20.7314 19.1805C20.2882 19.1805 20.2925 19.1805 20.2861 18.7269C20.2735 17.752 20.2756 16.7772 20.2397 15.8023C20.1975 14.6502 20.7398 13.8442 21.6703 13.2513C22.6536 12.6225 23.7635 12.3629 24.8966 12.1857C25.3967 12.1076 25.9031 12.0633 26.4053 12.0021C27.3612 12.0021 28.3149 12.0021 29.2708 12.0021L29.2686 12ZM24.9705 15.8804C24.9789 15.0912 24.4197 14.5025 23.6517 14.4962C22.8667 14.4878 22.2527 15.0807 22.2485 15.8509C22.2443 16.5852 22.8752 17.2139 23.6221 17.2182C24.367 17.2224 24.962 16.6316 24.9705 15.8804Z" fill="#B97A00" fill-opacity="0.8"/>
<path d="M33.7841 35.5443C31.9884 35.5443 30.1927 35.5443 28.3971 35.5443C27.9751 35.5443 27.9708 35.5443 27.973 35.9537C27.973 36.6669 27.9097 36.5951 28.6018 36.5951C30.8342 36.5951 33.0645 36.5951 35.297 36.5951C35.7401 36.5951 35.7422 36.5994 35.7443 37.0509C35.7443 38.068 35.7274 39.085 35.7527 40.1021C35.7781 41.0769 35.3307 41.7901 34.588 42.3535C33.879 42.8916 33.0603 43.2038 32.2036 43.379C29.4669 43.9403 26.7238 43.9719 23.9955 43.3262C23.0164 43.0941 22.1049 42.6953 21.3516 41.999C20.6658 41.3639 20.2776 40.6043 20.286 39.64C20.305 37.1796 20.2902 34.7193 20.3008 32.2611C20.305 31.4192 20.5456 30.6427 21.0562 29.9632C21.7251 29.0728 22.6683 28.6592 23.7212 28.4377C24.0483 28.368 24.3795 28.3659 24.7129 28.3659C27.1416 28.3659 29.5703 28.3723 31.9989 28.3617C32.6826 28.3596 33.3684 28.3111 34.0246 28.079C35.5143 27.5493 36.2803 26.4247 36.601 24.9392C36.6938 24.5024 36.7381 24.0593 36.736 23.6099C36.7318 22.5401 36.7424 21.4724 36.7297 20.4026C36.7276 20.1219 36.8162 20.0164 37.1032 20.0228C37.7868 20.0375 38.4726 20.0439 39.1584 20.0228C40.5405 19.9827 41.5976 20.5819 42.4142 21.6538C43.1696 22.6456 43.5452 23.7955 43.7456 25.0067C44.0959 27.1252 44.1191 29.2437 43.5958 31.339C43.2709 32.643 42.6906 33.8141 41.5892 34.6581C40.8401 35.2299 39.9961 35.5422 39.0486 35.5465C37.2952 35.5528 35.5396 35.5465 33.7862 35.5465L33.7841 35.5443ZM31.0157 39.9375C31.0178 40.6865 31.636 41.3069 32.3788 41.309C33.132 41.309 33.7524 40.676 33.7461 39.91C33.7397 39.1589 33.1173 38.5512 32.3661 38.5617C31.6065 38.5723 31.0114 39.1779 31.0136 39.9375H31.0157Z" fill="#B97A00" fill-opacity="0.8"/>
</svg>
